<svg xmlns="http://www.w3.org/2000/svg" width="1000" height="500" viewBox="0 0 1000 500"><rect width="100%" height="100%" fill="#D97706"/><path fill="#FFFFFF" d="M242.56 218.21v7.96h-15.69v44.1h-9.69v-44.1h-15.69v-7.96zm24.95 42.52v-6.23q-3.85.18-6.48.67-2.63.48-4.21 1.24t-2.27 1.76q-.68 1.01-.68 2.2 0 2.34 1.38 3.35 1.39 1.01 3.62 1.01 2.74 0 4.74-.99 1.99-.99 3.9-3.01m-18.79-19.4-1.58-2.85q6.37-5.83 15.33-5.83 3.24 0 5.8 1.06 2.55 1.06 4.32 2.95 1.76 1.89 2.68 4.52t.92 5.76v23.33h-4.03q-1.26 0-1.95-.38-.68-.38-1.08-1.53l-.79-2.66q-1.4 1.26-2.74 2.21-1.33.96-2.77 1.6-1.44.65-3.08.99-1.63.35-3.61.35-2.34 0-4.32-.63t-3.42-1.89-2.24-3.14q-.79-1.87-.79-4.35 0-1.41.47-2.79.47-1.39 1.53-2.65t2.75-2.37q1.7-1.12 4.16-1.95 2.47-.83 5.74-1.35 3.28-.52 7.49-.63v-2.16q0-3.71-1.58-5.49-1.59-1.78-4.57-1.78-2.16 0-3.59.5-1.42.51-2.5 1.14t-1.96 1.13q-.88.51-1.96.51-.94 0-1.59-.49-.64-.49-1.04-1.13m36.11-8h8.93v38.2q0 2.41-.63 4.54-.63 2.12-2.02 3.72t-3.64 2.52-5.49.92q-1.26 0-2.34-.16t-2.23-.52l.33-4.79q.1-.72.57-.92t1.8-.2 2.25-.27 1.46-.86q.54-.6.77-1.57.24-.97.24-2.41zm10.15-10.76q0 1.15-.47 2.16t-1.24 1.76q-.77.76-1.84 1.21-1.06.45-2.25.45-1.15 0-2.16-.45-1-.45-1.76-1.21-.76-.75-1.21-1.76t-.45-2.16q0-1.19.45-2.23.45-1.05 1.21-1.8.76-.76 1.76-1.21 1.01-.45 2.16-.45 1.19 0 2.25.45 1.07.45 1.84 1.21.77.75 1.24 1.8.47 1.04.47 2.23m8.14 10.76h8.92v36.94h-8.92zm10.15-10.76q0 1.15-.47 2.16t-1.24 1.76q-.78.76-1.82 1.21t-2.23.45q-1.15 0-2.18-.45t-1.78-1.21q-.76-.75-1.21-1.76t-.45-2.16q0-1.19.45-2.23.45-1.05 1.21-1.8.75-.76 1.78-1.21t2.18-.45q1.19 0 2.23.45t1.82 1.21q.77.75 1.24 1.8.47 1.04.47 2.23m15.55 12.38.61 2.92q1.12-1.12 2.36-2.07t2.63-1.62q1.38-.67 2.97-1.04 1.58-.38 3.45-.38 3.03 0 5.37 1.02 2.34 1.03 3.9 2.88 1.57 1.86 2.38 4.43.81 2.58.81 5.67v23.51h-8.89v-23.51q0-3.38-1.55-5.24-1.55-1.85-4.72-1.85-2.3 0-4.32 1.04-2.01 1.05-3.81 2.85v26.71h-8.89v-36.94h5.43q1.73 0 2.27 1.62m39.92 12.6h16.78q0-1.72-.49-3.25-.48-1.53-1.45-2.69-.98-1.15-2.47-1.81-1.49-.67-3.47-.67-3.86 0-6.07 2.2-2.21 2.19-2.83 6.22m22.68 5.37h-22.86q.22 2.84 1.01 4.91t2.09 3.42 3.08 2.02q1.78.66 3.94.66t3.73-.5q1.56-.5 2.73-1.12 1.17-.61 2.05-1.11.89-.51 1.71-.51 1.12 0 1.66.83l2.56 3.24q-1.48 1.73-3.32 2.9-1.83 1.17-3.83 1.87t-4.07.99-4.01.29q-3.85 0-7.17-1.28-3.31-1.28-5.76-3.78-2.44-2.5-3.85-6.19-1.4-3.69-1.4-8.55 0-3.78 1.22-7.11 1.23-3.33 3.51-5.8 2.29-2.46 5.58-3.9 3.3-1.44 7.44-1.44 3.49 0 6.44 1.11 2.95 1.12 5.08 3.26 2.12 2.14 3.33 5.26 1.2 3.11 1.2 7.11 0 2.01-.43 2.72-.43.7-1.66.7m64.01-34.71v7.96h-15.69v44.1h-9.69v-44.1h-15.69v-7.96zm13.29 17.36.54 4.17q1.72-3.31 4.1-5.2t5.62-1.89q2.55 0 4.1 1.12l-.58 6.66q-.18.64-.52.91t-.92.27q-.54 0-1.6-.18t-2.07-.18q-1.47 0-2.63.44-1.15.43-2.07 1.24-.91.81-1.62 1.96-.7 1.15-1.31 2.63v22.75h-8.89v-36.94h5.22q1.37 0 1.91.49t.72 1.75m38.52 25.16v-6.23q-3.86.18-6.48.67-2.63.48-4.22 1.24-1.58.76-2.26 1.76-.69 1.01-.69 2.2 0 2.34 1.39 3.35 1.38 1.01 3.62 1.01 2.73 0 4.73-.99t3.91-3.01m-18.8-19.4-1.58-2.85q6.37-5.83 15.34-5.83 3.24 0 5.79 1.06 2.56 1.06 4.32 2.95 1.77 1.89 2.68 4.52.92 2.63.92 5.76v23.33h-4.03q-1.26 0-1.94-.38-.69-.38-1.08-1.53l-.8-2.66q-1.4 1.26-2.73 2.21-1.33.96-2.77 1.6-1.44.65-3.08.99-1.64.35-3.62.35-2.34 0-4.32-.63t-3.42-1.89-2.23-3.14q-.79-1.87-.79-4.35 0-1.41.46-2.79.47-1.39 1.53-2.65 1.07-1.26 2.76-2.37 1.69-1.12 4.16-1.95 2.46-.83 5.74-1.35 3.27-.52 7.49-.63v-2.16q0-3.71-1.59-5.49-1.58-1.78-4.57-1.78-2.16 0-3.58.5-1.42.51-2.5 1.14t-1.97 1.13q-.88.51-1.96.51-.93 0-1.58-.49t-1.05-1.13m59.01 18v-16.56q-1.51-1.84-3.3-2.6-1.78-.75-3.83-.75-2.02 0-3.64.75-1.62.76-2.77 2.29t-1.76 3.89-.61 5.56q0 3.24.52 5.49t1.49 3.67 2.38 2.05q1.4.63 3.13.63 2.77 0 4.72-1.15 1.94-1.15 3.67-3.27m0-42.56h8.89v53.5h-5.44q-1.76 0-2.23-1.62l-.75-3.56q-2.24 2.55-5.13 4.14-2.9 1.58-6.75 1.58-3.03 0-5.55-1.26t-4.34-3.65q-1.81-2.4-2.8-5.93-.99-3.52-.99-8.06 0-4.1 1.11-7.63 1.12-3.53 3.21-6.12 2.08-2.59 5-4.05t6.55-1.46q3.1 0 5.29.97 2.2.97 3.93 2.63zm17.96 16.56h8.93v36.94h-8.93zm10.15-10.76q0 1.15-.46 2.16-.47 1.01-1.25 1.76-.77.76-1.81 1.21-1.05.45-2.24.45-1.15 0-2.17-.45-1.03-.45-1.79-1.21-.75-.75-1.2-1.76t-.45-2.16q0-1.19.45-2.23.45-1.05 1.2-1.8.76-.76 1.79-1.21 1.02-.45 2.17-.45 1.19 0 2.24.45 1.04.45 1.81 1.21.78.75 1.25 1.8.46 1.04.46 2.23m20.16 48.28q-4.82 0-7.39-2.72-2.58-2.72-2.58-7.51v-20.63h-3.78q-.72 0-1.22-.46-.51-.47-.51-1.41v-3.53l5.94-.97 1.88-10.08q.18-.72.68-1.11.5-.4 1.3-.4h4.6v11.63h9.87v6.33h-9.87v20.02q0 1.73.85 2.7t2.32.97q.83 0 1.39-.2.56-.19.97-.41t.74-.41q.32-.2.65-.2.39 0 .64.2.26.19.54.59l2.67 4.32q-1.95 1.62-4.47 2.45t-5.22.83m14.76-37.52h8.93v36.94h-8.93zm10.16-10.76q0 1.15-.47 2.16t-1.24 1.76q-.78.76-1.82 1.21-1.05.45-2.23.45-1.16 0-2.18-.45-1.03-.45-1.78-1.21-.76-.75-1.21-1.76t-.45-2.16q0-1.19.45-2.23.45-1.05 1.21-1.8.75-.76 1.78-1.21 1.02-.45 2.18-.45 1.18 0 2.23.45 1.04.45 1.82 1.21.77.75 1.24 1.8.47 1.04.47 2.23m24.19 10.19q4.1 0 7.47 1.33 3.36 1.33 5.76 3.78 2.39 2.45 3.69 5.98 1.29 3.52 1.29 7.88 0 4.39-1.29 7.92-1.3 3.53-3.69 6.01-2.4 2.49-5.76 3.82-3.37 1.33-7.47 1.33-4.14 0-7.53-1.33-3.38-1.33-5.77-3.82-2.4-2.48-3.71-6.01-1.32-3.53-1.32-7.92 0-4.36 1.32-7.88 1.31-3.53 3.71-5.98 2.39-2.45 5.77-3.78 3.39-1.33 7.53-1.33m0 31.21q4.61 0 6.82-3.1 2.21-3.09 2.21-9.07 0-5.97-2.21-9.11-2.21-3.13-6.82-3.13-4.68 0-6.93 3.15t-2.25 9.09 2.25 9.06q2.25 3.11 6.93 3.11m32.72-29.02.61 2.92q1.12-1.12 2.36-2.07t2.63-1.62 2.97-1.04q1.58-.38 3.46-.38 3.02 0 5.36 1.02 2.34 1.03 3.91 2.88 1.56 1.86 2.37 4.43.81 2.58.81 5.67v23.51h-8.89v-23.51q0-3.38-1.55-5.24-1.55-1.85-4.71-1.85-2.31 0-4.32 1.04-2.02 1.05-3.82 2.85v26.71h-8.89v-36.94h5.43q1.73 0 2.27 1.62m40.61 0 .61 2.92q1.12-1.12 2.36-2.07t2.63-1.62q1.38-.67 2.97-1.04 1.58-.38 3.45-.38 3.03 0 5.37 1.02 2.34 1.03 3.9 2.88 1.57 1.86 2.38 4.43.81 2.58.81 5.67v23.51h-8.89v-23.51q0-3.38-1.55-5.24-1.55-1.85-4.72-1.85-2.3 0-4.32 1.04-2.01 1.05-3.81 2.85v26.71h-8.89v-36.94h5.43q1.73 0 2.27 1.62m39.92 12.6h16.78q0-1.72-.49-3.25-.48-1.53-1.45-2.69-.98-1.15-2.47-1.81-1.49-.67-3.47-.67-3.86 0-6.07 2.2-2.21 2.19-2.83 6.22m22.68 5.37H757.9q.22 2.84 1.01 4.91t2.09 3.42 3.08 2.02q1.78.66 3.94.66t3.73-.5q1.56-.5 2.73-1.12 1.17-.61 2.05-1.11.89-.51 1.71-.51 1.12 0 1.66.83l2.56 3.24q-1.48 1.73-3.32 2.9-1.83 1.17-3.83 1.87t-4.07.99-4.01.29q-3.85 0-7.17-1.28-3.31-1.28-5.76-3.78-2.44-2.5-3.85-6.19-1.4-3.69-1.4-8.55 0-3.78 1.22-7.11 1.23-3.33 3.51-5.8 2.29-2.46 5.58-3.9 3.3-1.44 7.44-1.44 3.49 0 6.44 1.11 2.95 1.12 5.08 3.26 2.12 2.14 3.33 5.26 1.2 3.11 1.2 7.11 0 2.01-.43 2.72-.43.7-1.66.7m8.86-36.15h8.89v53.5h-8.89z"/></svg>